<?xml version="1.0" standalone="no"?> <!DOCTYPE svg PUBLIC "-//W3C//DTD SVG 20010904//EN" "http://www.w3.org/TR/2001/REC-SVG-20010904/DTD/svg10.dtd"> <svg version="1.0" xmlns="http://www.w3.org/2000/svg" width="15.000000pt" height="15.000000pt" viewBox="0 0 15.000000 15.000000" preserveAspectRatio="xMidYMid meet"> <g transform="translate(0.000000,15.000000) scale(0.100000,-0.100000)" fill="#c4cde5" stroke="none"> <path d="M41 141 c-8 -5 -21 -7 -28 -4 -11 4 -14 -1 -11 -18 2 -16 11 -25 26 -27 23 -4 31 13 10 21 -8 3 -3 9 12 15 30 12 75 -7 82 -35 18 -68 -74 -107 -106 -45 -7 14 -16 20 -19 14 -11 -16 25 -51 58 -58 45 -8 79 22 79 71 0 57 -58 94 -103 66z"/> <path d="M69 113 c-5 -35 16 -78 33 -67 5 3 2 14 -7 24 -9 10 -14 23 -11 29 4 5 2 12 -4 16 -5 3 -11 3 -11 -2z"/> </g> </svg>